<svg xmlns="http://www.w3.org/2000/svg" width="1163" height="295" viewBox="0 0 1163 295"><g><g opacity=".1"><path fill="none" stroke="#fff" stroke-miterlimit="50" stroke-width=".5" d="M396.994 126.115c11.873 0 21.534 9.644 21.534 21.497s-9.66 21.491-21.534 21.491h-20.615c-11.938 0-22.742 7.954-26.037 19.337-18 62.178-75.785 105.576-140.704 105.56-55.048-.016-105.174-30.761-130.244-79.108l.016-.003a21.317 21.317 0 0 1-1.402-16.392c1.742-5.473 5.51-9.939 10.621-12.58 10.442-5.392 23.296-1.387 28.842 8.9 17.66 34.332 53.165 56.191 92.167 56.191 45.835 0 86.745-30.65 99.49-74.54 8.613-29.645 36.27-50.353 67.25-50.353zm765.006-.8v43.57H468.043c-11.885 0-21.52-9.748-21.52-21.781 0-12.034 9.635-21.789 21.52-21.789zm-916.697-.8c12.6 0 22.851 10.31 22.851 22.98 0 12.673-10.252 22.98-22.85 22.98h-69.88c-12.601 0-22.85-10.307-22.85-22.98 0-12.67 10.249-22.98 22.85-22.98zm94.806-44.404c2.454 5.191 3.232 10.917 1.493 16.39-1.742 5.472-5.515 9.94-10.627 12.581-10.442 5.393-23.295 1.388-28.849-8.9-17.664-34.331-53.177-56.193-92.185-56.193-45.847 0-86.77 30.65-99.517 74.54-8.616 29.645-36.276 50.356-67.268 50.356h-20.62C10.66 168.885 1 159.241 1 147.388s9.66-21.498 21.536-21.498h20.62c11.94 0 22.645-7.93 25.899-19.333C86.879 44.085 144.835 1 209.941 1c71.491 0 116.028 49.161 130.168 79.11z"/></g></g></svg>