<svg xmlns="http://www.w3.org/2000/svg" width="2905" height="735" viewBox="0 0 2905 735"><g><g opacity=".1"><path fill="none" stroke="#fff" stroke-miterlimit="50" d="M991.155 314c29.689 0 53.845 24.127 53.845 53.78 0 29.654-24.156 53.765-53.845 53.765h-51.547c-29.849 0-56.863 19.897-65.102 48.375C829.5 625.47 685.01 734.04 522.684 734c-137.643-.04-262.98-76.956-325.664-197.904l.04-.008c-6.614-12.756-7.863-27.31-3.507-41.01 4.356-13.69 13.78-24.863 26.558-31.468 26.11-13.491 58.249-3.47 72.116 22.264 44.157 85.889 132.935 140.573 230.457 140.573 114.608 0 216.901-76.676 248.768-186.477C792.99 365.805 862.143 314 939.608 314zM2904 312v109H1168.809c-29.717 0-53.809-24.389-53.809-54.492 0-30.103 24.092-54.508 53.809-54.508zm-2292.136-2C643.366 310 669 335.797 669 367.5c0 31.71-25.634 57.5-57.136 57.5H437.136C405.626 425 380 399.21 380 367.5c0-31.703 25.626-57.5 57.136-57.5zm237.055-111.088c6.135 12.988 8.081 27.31 3.732 41.002-4.356 13.69-13.79 24.87-26.572 31.476-26.108 13.491-58.247 3.47-72.134-22.264-44.167-85.889-132.967-140.58-230.503-140.58-114.636 0-216.962 76.675-248.836 186.476C253.063 369.187 183.901 421 106.41 421H54.85C25.155 421 1 396.873 1 367.22c0-29.654 24.154-53.781 53.85-53.781h51.56c29.855 0 56.62-19.84 64.757-48.367C215.735 108.785 360.65 1 523.442 1c178.76 0 290.12 122.987 325.477 197.912z"/></g></g></svg>