<svg xmlns="http://www.w3.org/2000/svg" width="613" height="431" viewBox="0 0 613 431"><g><g opacity=".1" transform="rotate(-360 306.5 215.5)"><path fill="none" stroke="#fff" stroke-miterlimit="50" stroke-width=".5" d="M550.357 184.5c-45.309 0-85.757 30.281-98.354 73.633-18.639 64.18-78.47 109-145.503 109-57.04 0-108.966-31.965-134.793-82.169-8.11-15.042-26.909-20.9-42.18-13.013-7.474 3.86-12.986 10.39-15.534 18.394-2.547 8.007-1.817 16.515 2.051 23.97l-.023.005c36.664 70.697 109.972 115.657 190.48 115.68 94.944.023 179.454-63.438 205.778-154.361 4.819-16.646 20.62-28.276 38.078-28.276h30.15c17.364 0 31.493-14.094 31.493-31.427S597.871 184.5 580.506 184.5zM255.912 182c-18.427 0-33.412 15.03-33.412 33.5 0 18.475 14.985 33.5 33.412 33.5h102.176c18.422 0 33.412-15.025 33.412-33.5 0-18.47-14.99-33.5-33.412-33.5zM306.573 1C211.358 1 126.597 64.003 100.53 155.357c-4.76 16.674-20.414 28.271-37.877 28.271H32.497C15.127 183.628 1 197.731 1 215.064S15.128 246.5 32.497 246.5h30.156c45.325 0 85.777-30.286 98.378-73.637 18.643-64.181 78.493-109 145.542-109 57.049 0 108.987 31.969 134.82 82.173 8.123 15.042 26.92 20.9 42.191 13.013 7.476-3.86 12.994-10.396 15.542-18.398 2.544-8.003 1.406-16.375-2.182-23.967C476.263 72.89 411.129 1 306.574 1z"/></g></g></svg>