<svg xmlns="http://www.w3.org/2000/svg" width="34" height="46" viewBox="0 0 34 46"><g><g><g><path fill="#fcbf00" d="M16.382 8.406c1.085 0 2.71.677 3.477 1.45l6.295 6.34c.767.773 1.44 2.41 1.44 3.502v23.247c0 .904-.73 1.64-1.628 1.64H3.023a1.635 1.635 0 0 1-1.627-1.64v-32.9c0-.904.73-1.64 1.627-1.64zM29 42.954V19.702c0-1.477-.812-3.452-1.85-4.497l-6.297-6.342C19.816 7.818 17.855 7 16.388 7H3.024C1.357 7 0 8.366 0 10.046v32.908C0 44.634 1.357 46 3.024 46h22.951C27.643 46 29 44.634 29 42.954z"/></g><g><path fill="#fcbf00" d="M19.875 9.735l6.379 6.38c.186.185.264.318.296.392-.075.03-.224.067-.487.067h-4.998c-.91 0-1.65-.74-1.65-1.65V9.927c0-.263.038-.412.068-.488.074.033.206.112.392.297zm8.029 7.338c.143-.346.251-1.06-.639-1.95l-6.388-6.388c-.488-.488-.978-.735-1.46-.735C18.763 8 18 8.504 18 9.926v5.007A3.071 3.071 0 0 0 21.067 18h5.006c1.259 0 1.687-.58 1.831-.927z"/></g><g><path fill="#fbbf00" d="M25.238 6.585h.873c.384 0 .695-.309.695-.691V1.385h3.385v4.509c0 .382.312.691.696.691h.875L28.5 10.253zm3.783 5.181l4.804-5.409a.69.69 0 0 0 .113-.743.695.695 0 0 0-.633-.408h-1.723V.692A.694.694 0 0 0 30.887 0h-4.775a.694.694 0 0 0-.696.692v4.514h-1.72a.695.695 0 0 0-.634.408.689.689 0 0 0 .113.743l4.804 5.41a.695.695 0 0 0 1.042 0z"/></g><g><g><path fill="#fcbf00" d="M9.607 35.53c.17.18.254.411.254.695 0 .238-.055.43-.165.576a.918.918 0 0 1-.481.317c-.21.064-.472.096-.786.096h-.895v-1.969h.895c.594 0 .986.095 1.177.286zm.987 2.174c.413-.34.62-.84.62-1.5 0-.31-.051-.588-.153-.835a1.647 1.647 0 0 0-.446-.627 1.748 1.748 0 0 0-.698-.367c-.271-.077-.66-.115-1.166-.115H7.043c-.293 0-.507.062-.641.185-.134.124-.202.33-.202.62v4.991c0 .26.062.456.184.59a.624.624 0 0 0 .484.201c.191 0 .35-.068.475-.203.126-.135.189-.334.189-.596v-1.834h1.22c.816 0 1.43-.17 1.842-.51z"/></g><g><path fill="#fcbf00" d="M13.672 35.298h.879c.406 0 .753.044 1.04.13.286.087.528.289.724.606.196.318.294.795.294 1.433 0 .905-.223 1.543-.669 1.913a1.066 1.066 0 0 1-.35.198 1.641 1.641 0 0 1-.389.088c-.126.012-.3.018-.52.018h-1.01zm-1.14-.848c-.128.126-.192.331-.192.614v4.75c0 .208.018.378.056.51.037.13.117.232.24.304.122.072.305.108.547.108h1.735c.302 0 .573-.019.814-.057.24-.038.466-.105.675-.199.21-.094.402-.22.578-.375.225-.203.408-.434.552-.692.144-.257.25-.547.319-.868a5.1 5.1 0 0 0 .103-1.065c0-1.177-.343-2.055-1.027-2.632a2.147 2.147 0 0 0-.879-.464 4.741 4.741 0 0 0-1.161-.124h-1.736c-.287 0-.495.063-.624.19z"/></g><g><path fill="#fcbf00" d="M23.056 35.272h-2.624v1.656h2.194c.203 0 .354.045.455.135.1.09.15.21.15.36s-.05.27-.153.358c-.101.088-.252.133-.452.133h-2.194v2.134c0 .27-.062.472-.186.603a.63.63 0 0 1-.478.196.631.631 0 0 1-.482-.199c-.124-.132-.186-.333-.186-.6v-4.984c0-.188.028-.342.085-.462a.527.527 0 0 1 .267-.26c.121-.055.276-.082.464-.082h3.139c.212 0 .37.046.473.14a.467.467 0 0 1 .155.364.473.473 0 0 1-.155.369c-.103.093-.26.139-.472.139z"/></g></g><g><path fill="#fbbf00" d="M13.46 12.435c.12.13.501.736.33 3.088-.034.484-.167 1.119-.39 1.874-.697-1.594-.83-3.325-.495-4.353.112-.344.272-.58.43-.634a.223.223 0 0 1 .068-.013c.01 0 .023 0 .057.038zm.908 8.813c.587.74 1.228 1.549 1.894 2.334l-.325.03c-.837.08-2.288.264-3.888.66a51.212 51.212 0 0 0 1.726-3.77l.593.746zm9.195 4.78c.063.108.036.152.018.185-.102.177-.464.366-1.017.366-.16 0-.327-.016-.498-.047-.745-.138-1.63-.685-2.684-1.662 2.803.083 3.946.751 4.181 1.157zm-17.211 4.29c-.277.18-.555.284-.763.284-.068 0-.153-.01-.173-.06-.07-.168.01-.922 1.238-2.125.624-.611 1.427-1.155 2.4-1.627-1.095 1.811-2.096 3.13-2.702 3.527zm.767 1.17c1.36-.89 3.183-3.982 4.03-5.514 1.97-.62 3.915-.874 4.923-.971.469-.046.927-.08 1.364-.104 1.71 1.814 3.106 2.772 4.378 3.007.253.047.506.07.75.07 1.01 0 1.842-.397 2.227-1.064.285-.494.279-1.07-.018-1.584-.694-1.202-2.819-1.865-5.984-1.865-.246 0-.5.004-.766.012-.895-.996-1.776-2.107-2.56-3.096a113.146 113.146 0 0 0-1.112-1.387c.493-1.395.772-2.526.833-3.369.154-2.114-.075-3.468-.7-4.14a1.477 1.477 0 0 0-1.593-.398c-.418.14-.985.519-1.313 1.524-.507 1.555-.24 4.338 1.209 6.592-.654 1.723-1.587 3.738-2.6 5.62-1.906.663-3.42 1.536-4.505 2.596-1.385 1.354-1.954 2.685-1.56 3.653.237.582.786.93 1.468.93.487 0 1.015-.177 1.529-.512z"/></g><g/></g></g></svg>