<?xml version="1.0" encoding="UTF-8"?>
<svg width="48px" height="48px" viewBox="0 0 48 48" version="1.1" xmlns="http://www.w3.org/2000/svg" xmlns:xlink="http://www.w3.org/1999/xlink">
    <!-- Generator: Sketch 57.1 (83088) - https://sketch.com -->
    <title>Shape</title>
    <desc>Created with Sketch.</desc>
    <g id="Page-1" stroke="none" stroke-width="1" fill="none" fill-rule="evenodd">
        <g id="Group-7-Copy-5" transform="translate(-132.000000, -64.000000)" fill="#FFFFFF" fill-rule="nonzero">
            <g id="Group-7-Copy-4">
                <path d="M151.319999,98.6699995 L165.359999,88.1399996 L151.319999,77.6099996 L151.319999,98.6699995 L151.319999,98.6699995 Z M155.999999,64.7399997 C143.129999,64.7399997 132.599999,75.2699997 132.599999,88.1399996 C132.599999,101.01 143.129999,111.539999 155.999999,111.539999 C168.869999,111.539999 179.399999,101.01 179.399999,88.1399996 C179.399999,75.2699997 168.869999,64.7399997 155.999999,64.7399997 L155.999999,64.7399997 Z M155.999999,106.86 C145.703999,106.86 137.279999,98.4359995 137.279999,88.1399996 C137.279999,77.8439996 145.703999,69.4199997 155.999999,69.4199997 C166.295999,69.4199997 174.719999,77.8439996 174.719999,88.1399996 C174.719999,98.4359995 166.295999,106.86 155.999999,106.86 L155.999999,106.86 Z" id="Shape"></path>
            </g>
        </g>
    </g>
</svg>