<svg xmlns="http://www.w3.org/2000/svg" width="28" height="32" viewBox="0 0 28 32"><defs><clipPath id="ppkba"><path d="M0 17.33h28v14.667H0z"/></clipPath></defs><g><g><g><path fill="#fff" d="M14 14.667c-3.308 0-6-2.692-6-6V6c0-3.308 2.692-6 6-6s6 2.692 6 6v2.667c0 3.308-2.692 6-6 6m.005-13.334A4.674 4.674 0 0 0 9.333 6v2.667a4.674 4.674 0 0 0 4.672 4.666 4.674 4.674 0 0 0 4.672-4.666V6a4.674 4.674 0 0 0-4.672-4.667"/></g><g><g/><g clip-path="url(#ppkba)"><path fill="#fff" d="M25.96 31.997H2.039A2.042 2.042 0 0 1 0 29.957V26.21c0-4.897 3.983-8.88 8.879-8.88h.002c.523 0 1.003.257 1.322.707a4.659 4.659 0 0 0 7.593 0c.319-.45.799-.707 1.321-.707 4.899 0 8.883 3.983 8.883 8.88v3.747c0 1.124-.916 2.04-2.04 2.04M8.884 18.663c-4.163 0-7.55 3.386-7.55 7.547v3.747c0 .389.315.706.705.706h23.93c.39 0 .708-.317.708-.706V26.21c0-4.161-3.387-7.547-7.55-7.547-.117 0-.199.091-.236.144a5.997 5.997 0 0 1-9.773 0c-.03-.042-.115-.144-.234-.144"/></g></g></g></g></svg>