<svg xmlns="http://www.w3.org/2000/svg" width="2655" height="280" viewBox="0 0 2655 280"><defs><radialGradient id="8ynta" cx="1327.5" cy="140" r="556.86" gradientUnits="userSpaceOnUse"><stop offset="0" stop-color="#fcd202"/><stop offset="1" stop-color="#f6b108"/></radialGradient></defs><g><g><path fill="url(#8ynta)" d="M663.44 119c11.358 0 20.56 9.18 20.56 20.503S674.798 160 663.44 160H0v-41zm1260.006 0c11.333 0 20.554 9.249 20.554 20.616 0 11.367-9.221 20.61-20.554 20.61h-19.678c-11.394 0-21.706 7.627-24.851 18.543-17.18 59.628-72.337 101.246-134.302 101.231-52.543-.015-100.388-29.5-124.317-75.863l.015-.003a20.53 20.53 0 0 1-1.338-15.72c1.662-5.249 5.26-9.531 10.138-12.064 9.967-5.171 22.235-1.33 27.529 8.535 16.856 32.924 50.746 53.886 87.973 53.886 43.75 0 82.798-29.392 94.963-71.482 8.221-28.43 34.62-48.289 64.19-48.289zM2655 119v41h-663.427c-11.362 0-20.573-9.174-20.573-20.497S1980.211 119 1991.573 119zm-876.747-1c11.99 0 21.747 9.646 21.747 21.5 0 11.857-9.757 21.5-21.747 21.5h-66.506c-11.993 0-21.747-9.643-21.747-21.5 0-11.854 9.754-21.5 21.747-21.5zm91.426-42.134c2.342 4.979 3.085 10.47 1.424 15.718-1.663 5.248-5.264 9.533-10.143 12.066-9.966 5.171-22.235 1.33-27.536-8.535-16.86-32.924-50.758-53.89-87.99-53.89-43.76 0-82.822 29.393-94.99 71.483-8.223 28.43-34.625 48.292-64.206 48.292h-19.682c-11.336 0-20.556-9.249-20.556-20.616 0-11.367 9.22-20.616 20.556-20.616h19.682c11.397 0 21.614-7.605 24.72-18.54C1627.971 41.318 1683.291 0 1745.433 0c68.239 0 110.749 47.145 124.246 75.866z"/></g></g></svg>