<svg xmlns="http://www.w3.org/2000/svg" width="334" height="88" viewBox="0 0 334 88"><defs><radialGradient id="nw44a" cx="174.5" cy="44" r="174.96" gradientUnits="userSpaceOnUse"><stop offset="0" stop-color="#fcd202"/><stop offset="1" stop-color="#f6b108"/></radialGradient></defs><g><g clip-path="url(#clip-D70C4A8E-7993-4AD4-A7EB-4C7721B1BDAA)"><path fill="url(#nw44a)" d="M34.152 37.4c3.58 0 6.482 2.885 6.482 6.444s-2.901 6.442-6.482 6.442H-175V37.4zm259.222 0a6.487 6.487 0 0 1 6.48 6.48 6.485 6.485 0 0 1-6.48 6.477h-6.203c-3.592 0-6.843 2.397-7.835 5.828-5.416 18.74-22.804 31.82-42.339 31.815a44.155 44.155 0 0 1-39.191-23.843h.005a6.434 6.434 0 0 1-.422-4.941 6.433 6.433 0 0 1 3.196-3.792 6.485 6.485 0 0 1 8.678 2.683 31.187 31.187 0 0 0 27.734 16.935c13.792 0 26.103-9.237 29.938-22.466 2.592-8.935 10.914-15.176 20.236-15.176zM524 37.4v12.886H314.852c-3.582 0-6.486-2.883-6.486-6.442s2.904-6.444 6.486-6.444zm-276.398-.314c3.78 0 6.856 3.031 6.856 6.757 0 3.726-3.076 6.757-6.856 6.757h-20.966c-3.781 0-6.856-3.03-6.856-6.757 0-3.726 3.075-6.757 6.856-6.757zm28.832-13.242c.738 1.564.973 3.29.45 4.94a6.437 6.437 0 0 1-3.199 3.792c-3.142 1.625-7.01.418-8.681-2.683a31.2 31.2 0 0 0-27.743-16.936c-13.797 0-26.112 9.237-29.948 22.466C204.72 44.358 196.396 50.6 187.07 50.6h-6.206a6.487 6.487 0 0 1-6.48-6.48 6.487 6.487 0 0 1 6.48-6.479h6.206c3.593 0 6.814-2.39 7.793-5.827C200.227 12.986 217.67 0 237.261 0c21.515 0 34.918 14.817 39.173 23.844z"/></g></g></svg>