<svg xmlns="http://www.w3.org/2000/svg" width="1224" height="860" viewBox="0 0 1224 860"><g><g opacity=".1" transform="rotate(-360 612 430)"><path fill="none" stroke="#fff" stroke-miterlimit="50" d="M1099.714 368c-90.618 0-171.513 60.563-196.708 147.265-37.277 128.362-156.939 218-291.006 218-114.08 0-217.931-63.928-269.585-164.336-16.222-30.085-53.818-41.8-84.361-26.028-14.948 7.722-25.972 20.783-31.068 36.788-5.095 16.015-3.634 33.03 4.103 47.942l-.047.01C304.369 769.034 450.987 858.952 612 859c189.89.047 358.91-126.875 411.558-308.723 9.637-33.291 41.239-56.552 76.156-56.552h60.299c34.73 0 62.987-28.187 62.987-62.853S1194.742 368 1160.013 368zm-588.89-5C473.97 363 444 393.06 444 430c0 36.95 29.97 67 66.823 67h204.354C752.02 497 782 466.95 782 430c0-36.94-29.98-67-66.823-67zM612.146 1C421.715 1 252.194 127.006 200.059 309.713c-9.518 33.348-40.827 56.543-75.752 56.543H63.993C29.255 366.256 1 394.462 1 429.128S29.255 492 63.993 492h60.314c90.648 0 171.554-60.572 196.754-147.275 37.287-128.362 156.987-218 291.086-218 114.097 0 217.974 63.938 269.64 164.346 16.245 30.085 53.84 41.8 84.381 26.028 14.952-7.722 25.988-20.792 31.085-36.798 5.087-16.005 2.81-32.75-4.366-47.932C951.526 144.779 821.258 1 612.147 1z"/></g></g></svg>