<svg xmlns="http://www.w3.org/2000/svg" width="28" height="31" viewBox="0 0 28 31"><g><g><g><g><g><path fill="#fff" d="M23.935 8.913l2.145 18.241a1.91 1.91 0 0 1-1.896 2.132H3.182a1.91 1.91 0 0 1-1.896-2.132L3.431 8.913zm3.41 18.083L25.132 8.202a.636.636 0 0 0-.632-.562H2.865a.636.636 0 0 0-.632.562L.023 26.996a3.181 3.181 0 0 0 3.159 3.553h21.002a3.181 3.181 0 0 0 3.16-3.553z"/></g><g><path fill="#fff" d="M8.593 10.818V6.364a5.091 5.091 0 0 1 10.182 0v4.454a.636.636 0 1 0 1.272 0V6.364a6.364 6.364 0 0 0-12.727 0v4.454a.636.636 0 1 0 1.273 0z"/></g></g></g></g></g></svg>