<svg xmlns="http://www.w3.org/2000/svg" width="24" height="23" viewBox="0 0 24 23"><g><g><g><path fill="#2f302f" d="M23.5 3h-14a.5.5 0 0 0 0 1h14a.5.5 0 0 0 0-1z"/></g><g><path fill="#2f302f" d="M4.5 3h-4a.5.5 0 0 0 0 1h4a.5.5 0 0 0 0-1z"/></g><g><path fill="#2f302f" d="M23.5 11h-3a.5.5 0 0 0 0 1h3a.5.5 0 0 0 0-1z"/></g><g><path fill="#2f302f" d="M15.5 11H.5a.5.5 0 0 0 0 1h15a.5.5 0 0 0 0-1z"/></g><g><path fill="#2f302f" d="M23.5 19h-17a.5.5 0 0 0 0 1h17a.5.5 0 0 0 0-1z"/></g><g><path fill="#2f302f" d="M1.5 19h-1a.5.5 0 0 0 0 1h1a.5.5 0 0 0 0-1z"/></g><g><path fill="#2f302f" d="M5 5V2a1 1 0 0 1 2 0v3a1 1 0 0 1-2 0zm3 0V2a2 2 0 0 0-4 0v3a2 2 0 0 0 4 0z"/></g><g><path fill="#2f302f" d="M16 13v-3a1 1 0 0 1 2 0v3a1 1 0 0 1-2 0zm3 0v-3a2 2 0 0 0-4 0v3a2 2 0 0 0 4 0z"/></g><g><path fill="#2f302f" d="M2 21v-3a1 1 0 0 1 2 0v3a1 1 0 0 1-2 0zm3 0v-3a2 2 0 0 0-4 0v3a2 2 0 0 0 4 0z"/></g></g></g></svg>