<svg xmlns="http://www.w3.org/2000/svg" width="24" height="24" viewBox="0 0 24 24"><g><g><g><path fill="#fff" d="M21.978 8.353a.499.499 0 0 1 .007.027l-.026-.075zM22 8.5v.003a.504.504 0 0 0 0-.003zm0 15a.5.5 0 0 1-.5.5h-19a.5.5 0 0 1-.5-.5v-15a.5.5 0 0 1 .178-.382l9.5-8a.5.5 0 0 1 .644 0l9.498 7.998A.5.5 0 0 0 21 8.5v.233l.178.15a.5.5 0 0 0 .822-.38zm-.178-15.382a.465.465 0 0 1-.002-.002zM12 1.154L3 8.733V23h18V8.733zm9.828 6.969a.498.498 0 0 1 .127.17l-.003-.007.007.02-.004-.014-.003-.006a.502.502 0 0 0-.124-.163z"/></g><g><path fill="#fff" d="M23.854 10.146l-2-2a.5.5 0 1 0-.708.708l2 2a.5.5 0 1 0 .708-.708z"/></g><g><path fill="#fff" d="M.854 10.854l2-2a.5.5 0 1 0-.708-.708l-2 2a.5.5 0 1 0 .708.708z"/></g><g><path fill="#fff" d="M9 23v-7.5a1.5 1.5 0 0 1 1.5-1.5h3a1.5 1.5 0 0 1 1.5 1.5V23zm7-7.5a2.5 2.5 0 0 0-2.5-2.5h-3A2.5 2.5 0 0 0 8 15.5v8a.5.5 0 0 0 .5.5h7a.5.5 0 0 0 .5-.5z"/></g></g></g></svg>