<svg fill="#000" xmlns="http://www.w3.org/2000/svg" width="28" height="26" viewBox="0 0 28 26"><g><g><g><g><path fill="#000" d="M4.838.17L.17 4.839a.583.583 0 0 0 .825.824L5.662.996A.583.583 0 0 0 4.838.17z"/></g><g><path fill="#000" d="M5.662 9.508L.996 4.84a.583.583 0 0 0-.825.825l4.667 4.666a.583.583 0 0 0 .824-.824z"/></g><g><path fill="#000" d="M.583 5.837H19.25a6.418 6.418 0 0 1 6.417 6.416.583.583 0 1 0 1.166 0A7.584 7.584 0 0 0 19.25 4.67H.583a.583.583 0 0 0 0 1.167z"/></g><g><path fill="#000" d="M23.166 25.492l4.666-4.666a.583.583 0 0 0-.824-.825l-4.667 4.667a.583.583 0 0 0 .825.824z"/></g><g><path fill="#000" d="M22.34 16.166l4.668 4.666a.583.583 0 0 0 .824-.824l-4.666-4.667a.583.583 0 0 0-.825.825z"/></g><g><path fill="#000" d="M27.42 19.83H8.753a6.418 6.418 0 0 1-6.416-6.417.583.583 0 0 0-1.167 0 7.584 7.584 0 0 0 7.583 7.584H27.42a.583.583 0 0 0 0-1.167z"/></g></g></g></g></svg>