<svg xmlns="http://www.w3.org/2000/svg" width="30" height="30" viewBox="0 0 30 30"><g><g><path fill="#323232" d="M18.364 5.636A8.943 8.943 0 0 1 21 12a8.943 8.943 0 0 1-2.636 6.364A8.943 8.943 0 0 1 12 21a8.943 8.943 0 0 1-6.364-2.636A8.943 8.943 0 0 1 3 12c0-2.403.936-4.665 2.636-6.364A8.943 8.943 0 0 1 12 3c2.403 0 4.665.936 6.364 2.636zm3.55 12.645a11.86 11.86 0 0 0 1.86-6.383C23.773 5.328 18.453 0 11.89 0 5.32 0 0 5.328 0 11.898c0 6.57 5.32 11.899 11.883 11.899 2.383 0 4.601-.703 6.46-1.906l.54-.375L27.367 30 30 27.32l-8.477-8.484z"/></g></g></svg>