<svg xmlns="http://www.w3.org/2000/svg" width="15" height="15" viewBox="0 0 15 15"><g><g><g><path fill="#fff" d="M.618 7.412A6.794 6.794 0 0 1 13.615 4.64a.309.309 0 1 0 .564-.252A7.412 7.412 0 0 0 0 7.412a.309.309 0 0 0 .619 0z"/></g><g><path fill="#fff" d="M13.59 1.549v3.088c0 .17.157.309.35.309.193 0 .35-.138.35-.309V1.549c0-.17-.157-.309-.35-.309-.193 0-.35.138-.35.309z"/></g><g><path fill="#fff" d="M10.809 5.02h3.088c.17 0 .309-.157.309-.35 0-.193-.138-.35-.309-.35H10.81c-.17 0-.309.157-.309.35 0 .193.138.35.309.35z"/></g><g><path fill="#fff" d="M.647 10.431a7.412 7.412 0 0 0 14.18-3.023.309.309 0 0 0-.619 0A6.794 6.794 0 0 1 1.211 10.18a.309.309 0 1 0-.564.251z"/></g><g><path fill="#fff" d="M1.32 13.277V10.19c0-.17-.157-.309-.35-.309-.193 0-.35.138-.35.309v3.088c0 .17.157.309.35.309.193 0 .35-.138.35-.309z"/></g><g><path fill="#fff" d="M4.017 9.88H.929c-.17 0-.309.157-.309.35 0 .193.138.35.309.35h3.088c.17 0 .309-.157.309-.35 0-.193-.138-.35-.309-.35z"/></g></g></g></svg>