<svg xmlns="http://www.w3.org/2000/svg" width="169" height="25" viewBox="0 0 169 25"><defs><radialGradient id="18efa" cx="84.5" cy="-8.35" r="63.07" gradientUnits="userSpaceOnUse"><stop offset="0" stop-color="#ffd100"/><stop offset="1" stop-color="#fab600"/></radialGradient></defs><g><g clip-path="url(#clip-96B5A9F5-56BB-39EB-28CA-1B7462D69D67)"><path fill="url(#18efa)" d="M68.935 18.076c0-.746.597-1.351 1.334-1.351.737 0 1.334.605 1.334 1.351v3.853c0 .205.165.37.368.37h4.733c5.363 0 9.782-4.336 9.849-9.67a9.787 9.787 0 0 0-2.79-7.014A9.56 9.56 0 0 0 76.868 2.7h-4.898a.37.37 0 0 0-.368.372v3.69c0 .745-.597 1.35-1.334 1.35a1.342 1.342 0 0 1-1.334-1.35v-3.69C68.935 1.378 70.297 0 71.971 0h4.898c3.33 0 6.452 1.321 8.793 3.719a12.485 12.485 0 0 1 3.558 8.947C89.135 19.466 83.52 25 76.704 25h-4.733c-1.674 0-3.036-1.378-3.036-3.071zM129.097 0c.737 0 1.334.604 1.334 1.35v16.562c0 3.908-3.143 7.088-7.004 7.088h-9.257c-3.927 0-7.005-3.043-7.005-6.924 0-.807.133-1.594.396-2.338a6.81 6.81 0 0 1 2.423-3.227c-1.722-1.25-2.819-3.268-2.819-5.587 0-3.883 3.078-6.924 7.005-6.924h5.846c.737 0 1.334.605 1.334 1.35 0 .745-.597 1.349-1.334 1.349h-5.846c-2.431 0-4.337 1.855-4.337 4.225 0 2.37 1.906 4.227 4.337 4.227h5.467a1.34 1.34 0 0 1 1.334 1.347 1.34 1.34 0 0 1-1.334 1.351h-5.467c-1.887 0-3.496 1.098-4.097 2.797-.159.451-.24.933-.24 1.43 0 2.37 1.906 4.223 4.337 4.223h9.257c2.392 0 4.336-1.967 4.336-4.387V1.35c0-.745.599-1.349 1.334-1.349zm-25.573 22.3c.737 0 1.334.605 1.334 1.35 0 .745-.597 1.35-1.334 1.35h-2.019c-3.864 0-7.009-3.18-7.009-7.088V1.35c0-.744.599-1.349 1.336-1.349.736 0 1.333.605 1.333 1.35v16.562c0 2.42 1.947 4.387 4.34 4.387zm34.24-12.846a1.34 1.34 0 0 1-1.334-1.35V3.072c0-1.693 1.363-3.071 3.037-3.071h4.736c4.96 0 9.462 2.934 11.467 7.476.302.68 0 1.478-.672 1.783a1.328 1.328 0 0 1-1.763-.683 9.878 9.878 0 0 0-9.032-5.877h-4.736a.37.37 0 0 0-.368.372v5.034c0 .745-.597 1.35-1.334 1.35zm29.903 1.697A1.34 1.34 0 0 1 169 12.498c0 .746-.597 1.351-1.333 1.351h-7.592a4.327 4.327 0 0 0-4.071 2.871c-1.757 4.954-6.434 8.278-11.637 8.278h-4.9c-1.674 0-3.037-1.376-3.037-3.069v-3.69c0-3.909 3.143-7.088 7.009-7.088h4.356a1.34 1.34 0 0 1 1.332 1.347c0 .746-.597 1.351-1.332 1.351h-4.356c-2.393 0-4.34 1.97-4.34 4.39v3.69c0 .205.164.37.368.37h4.736a9.877 9.877 0 0 0 9.032-5.875c.012-.028.028-.05.042-.076.075-.176.15-.356.215-.539a7 7 0 0 1 6.583-4.658zM40.776 9.19a7.003 7.003 0 0 1-6.583 4.658h-4.724a6.957 6.957 0 0 1 1.405 4.421A6.886 6.886 0 0 1 23.952 25h-7.188c-1.674 0-3.036-1.378-3.036-3.071v-4.838c0-.746.597-1.35 1.334-1.35.737 0 1.334.604 1.334 1.35v4.838c0 .205.166.37.368.37h7.188c2.323 0 4.19-1.801 4.254-4.103a4.241 4.241 0 0 0-1.181-3.085 4.066 4.066 0 0 0-2.957-1.262h-4.77a1.342 1.342 0 0 1-1.335-1.349c0-.746.597-1.35 1.334-1.35h14.896a4.324 4.324 0 0 0 4.07-2.87C40.02 3.326 44.696.002 49.9.002c4.909 0 9.353 2.937 11.325 7.483a1.356 1.356 0 0 1-.687 1.778 1.33 1.33 0 0 1-1.757-.695c-1.547-3.564-5.03-5.867-8.881-5.867-4.08 0-7.746 2.607-9.124 6.49zm38.654 3.307c0 .746-.597 1.351-1.335 1.351h-13.5c-1.3 0-2.461.879-2.823 2.137-1.52 5.308-6.402 9.012-11.872 9.012-4.908 0-9.352-2.937-11.324-7.483a1.356 1.356 0 0 1 .686-1.778 1.33 1.33 0 0 1 1.758.695c1.547 3.564 5.032 5.867 8.88 5.867 4.29 0 8.117-2.905 9.31-7.064.69-2.407 2.904-4.084 5.385-4.084h13.5c.738 0 1.335.603 1.335 1.347zm-26.62-1.347c.738 0 1.337.603 1.337 1.347 0 .746-.6 1.351-1.336 1.351H47a1.344 1.344 0 0 1-1.337-1.35c0-.745.598-1.348 1.336-1.348zM13.676 3.07C13.675 1.375 15.035 0 16.71 0h6.666c1.864 0 3.607.744 4.907 2.097a6.911 6.911 0 0 1 1.938 5.02 1.338 1.338 0 0 1-1.37 1.313 1.343 1.343 0 0 1-1.299-1.385 4.216 4.216 0 0 0-1.14-3.022A4.243 4.243 0 0 0 23.308 2.7H16.71a.37.37 0 0 0-.368.372v3.69c0 3.907-3.144 7.088-7.008 7.088H1.333A1.343 1.343 0 0 1 0 12.5a1.34 1.34 0 0 1 1.333-1.348h8.002c2.392 0 4.34-1.97 4.34-4.39z"/></g></g></svg>