<svg xmlns="http://www.w3.org/2000/svg" width="34" height="34" viewBox="0 0 34 34"><g><g><g><path fill="#fff" d="M32.77 25.32c.562.561.871 1.308.871 2.101 0 .794-.309 1.54-.87 2.101l-1.713 1.713c-1.578 1.578-3.75 2.407-6.236 2.407-.594 0-1.206-.048-1.833-.144-3.18-.485-6.341-2.163-8.903-4.725l-9.218-9.217C2.307 16.994.628 13.832.143 10.653c-.496-3.248.308-6.114 2.263-8.07L4.12.87A2.952 2.952 0 0 1 6.22 0c.794 0 1.54.31 2.101.87l7.735 7.736a.603.603 0 0 1 0 .852l-3.072 3.073a2.26 2.26 0 0 0-.667 1.61c0 .607.237 1.178.667 1.608l4.908 4.909c.43.43 1.001.666 1.61.666a2.26 2.26 0 0 0 1.608-.666l3.073-3.073a.602.602 0 0 1 .853 0zm-.861 3.35a1.768 1.768 0 0 0 0-2.497l-7.307-7.31-2.646 2.647a3.483 3.483 0 0 1-4.921 0l-4.908-4.908a3.486 3.486 0 0 1 0-4.924l2.646-2.646-7.307-7.309a1.758 1.758 0 0 0-1.248-.516c-.451 0-.903.172-1.248.516L3.258 3.436C1.581 5.113.898 7.611 1.335 10.471c.447 2.927 2.004 5.85 4.384 8.232l9.215 9.218c2.38 2.38 5.303 3.939 8.23 4.386 2.858.436 5.355-.247 7.032-1.925z"/></g></g></g></svg>