<svg xmlns="http://www.w3.org/2000/svg" width="25" height="22" viewBox="0 0 25 22"><g><g><path fill="#fefefe" d="M22.239 13.084c-.163.437-.582.73-1.042.73H10.124l1.25 3.342a.33.33 0 0 0 .307.215h9.815l.046.003c1.203.06 2.164 1.074 2.164 2.312 0 1.276-1.022 2.314-2.278 2.314-1.255 0-2.277-1.038-2.277-2.314 0-.58.21-1.11.558-1.516h-7.046c.348.407.559.936.559 1.516 0 1.276-1.022 2.314-2.278 2.314-1.255 0-2.277-1.038-2.277-2.314 0-1.165.851-2.131 1.955-2.29l-1.406-3.76a.414.414 0 0 1-.04-.08L5.94 4.899a.411.411 0 0 1-.02-.082L4.5 1.018a.331.331 0 0 0-.31-.22H.394A.396.396 0 0 1 0 .4C0 .18.176 0 .393 0h3.798c.462 0 .882.296 1.044.736l1.353 3.62h17.297c.367 0 .71.183.918.49.208.306.255.697.124 1.045l-2.688 7.193M24.146 5.3a.322.322 0 0 0-.27-.145H6.887l2.937 7.87h11.365a.33.33 0 0 0 .306-.215l2.687-7.202a.335.335 0 0 0-.036-.308M10.949 21.2c.826 0 1.497-.68 1.497-1.515 0-.836-.671-1.516-1.497-1.516-.824 0-1.496.68-1.496 1.516 0 .835.672 1.515 1.496 1.515m11.97-1.515c0-.836-.668-1.516-1.49-1.516-.823 0-1.492.68-1.492 1.516 0 .835.67 1.515 1.491 1.515.823 0 1.492-.68 1.492-1.515"/></g></g></svg>