<svg xmlns="http://www.w3.org/2000/svg" width="26" height="26" viewBox="0 0 26 26"><g><g><g><path fill="none" stroke="#fff" stroke-linecap="round" stroke-linejoin="round" stroke-miterlimit="50" stroke-width=".7" d="M13.004 15.417a7.264 7.264 0 1 0 0-14.527 7.264 7.264 0 0 0 0 14.527z"/></g><g><path fill="none" stroke="#fff" stroke-linecap="round" stroke-linejoin="round" stroke-miterlimit="50" stroke-width=".7" d="M.54 25.112c0-3.89 3.182-7.072 7.072-7.072h10.772c3.89 0 7.073 3.182 7.073 7.072"/></g><g><path fill="none" stroke="#fff" stroke-linecap="round" stroke-linejoin="round" stroke-miterlimit="50" stroke-width=".7" d="M13.004 15.417a7.264 7.264 0 1 0 0-14.527 7.264 7.264 0 0 0 0 14.527z"/></g><g><path fill="none" stroke="#fff" stroke-linecap="round" stroke-linejoin="round" stroke-miterlimit="50" stroke-width=".7" d="M.54 25.112c0-3.89 3.182-7.072 7.072-7.072h10.772c3.89 0 7.073 3.182 7.073 7.072"/></g></g></g></svg>